<svg width="130" height="130" viewBox="0 0 130 130" fill="none" xmlns="http://www.w3.org/2000/svg">
<g clip-path="url(#clip0_590_838)">
<path d="M65 113.75C91.9239 113.75 113.75 91.9239 113.75 65C113.75 38.0761 91.9239 16.25 65 16.25C38.0761 16.25 16.25 38.0761 16.25 65C16.25 91.9239 38.0761 113.75 65 113.75Z" stroke="#435334" stroke-width="10" stroke-linecap="round" stroke-linejoin="round"/>
<path d="M80.1667 48.75C79.1854 47.0479 77.7598 45.6447 76.0423 44.6905C74.3249 43.7364 72.3803 43.2672 70.4167 43.3333H59.5833C56.7102 43.3333 53.9547 44.4747 51.923 46.5064C49.8914 48.538 48.75 51.2935 48.75 54.1667C48.75 57.0399 49.8914 59.7954 51.923 61.827C53.9547 63.8586 56.7102 65 59.5833 65H70.4167C73.2898 65 76.0453 66.1414 78.077 68.173C80.1086 70.2047 81.25 72.9602 81.25 75.8333C81.25 78.7065 80.1086 81.462 78.077 83.4937C76.0453 85.5253 73.2898 86.6667 70.4167 86.6667H59.5833C57.6197 86.7328 55.6751 86.2637 53.9577 85.3095C52.2402 84.3554 50.8146 82.9521 49.8333 81.25" stroke="#435334" stroke-width="10" stroke-linecap="round" stroke-linejoin="round"/>
<path d="M65 86.6667V97.5M65 32.5V43.3333V32.5Z" stroke="#435334" stroke-width="10" stroke-linecap="round" stroke-linejoin="round"/>
</g>
<path d="M130 129H0V131H130V129Z" fill="#53694B" mask="url(#path-1-inside-1_590_838)"/>
<defs>
<clipPath id="clip0_590_838">
<path d="M0 0H130V130H0V0Z" fill="white"/>
</clipPath>
</defs>
</svg>
