<svg width="81" height="80" viewBox="0 0 81 80" fill="none" xmlns="http://www.w3.org/2000/svg">
<g clip-path="url(#clip0_406_2532)">
<path d="M40.5 70C57.0685 70 70.5 56.5685 70.5 40C70.5 23.4315 57.0685 10 40.5 10C23.9315 10 10.5 23.4315 10.5 40C10.5 56.5685 23.9315 70 40.5 70Z" stroke="#A7D397" stroke-width="7" stroke-linecap="round" stroke-linejoin="round"/>
<path d="M49.8333 30C49.2295 28.9526 48.3522 28.089 47.2953 27.5019C46.2384 26.9147 45.0417 26.626 43.8333 26.6667H37.1667C35.3986 26.6667 33.7029 27.3691 32.4526 28.6193C31.2024 29.8695 30.5 31.5652 30.5 33.3333C30.5 35.1015 31.2024 36.7971 32.4526 38.0474C33.7029 39.2976 35.3986 40 37.1667 40H43.8333C45.6014 40 47.2971 40.7024 48.5474 41.9526C49.7976 43.2029 50.5 44.8986 50.5 46.6667C50.5 48.4348 49.7976 50.1305 48.5474 51.3807C47.2971 52.631 45.6014 53.3333 43.8333 53.3333H37.1667C35.9583 53.374 34.7616 53.0853 33.7047 52.4982C32.6478 51.911 31.7705 51.0475 31.1667 50" stroke="#A7D397" stroke-width="7" stroke-linecap="round" stroke-linejoin="round"/>
<path d="M40.5 53.3333V60M40.5 20V26.6667V20Z" stroke="#A7D397" stroke-width="7" stroke-linecap="round" stroke-linejoin="round"/>
</g>
<defs>
<clipPath id="clip0_406_2532">
<rect width="80" height="80" fill="white" transform="translate(0.5)"/>
</clipPath>
</defs>
</svg>
