<svg width="130" height="130" viewBox="0 0 130 130" fill="none" xmlns="http://www.w3.org/2000/svg">
<path d="M119.167 42.3584C119.193 42.0158 119.193 41.6717 119.167 41.3292L108.333 14.2459C107.91 13.1753 107.157 12.2673 106.183 11.6537C105.209 11.0401 104.065 10.7528 102.917 10.8334H27.0833C25.9985 10.8323 24.9383 11.157 24.0402 11.7655C23.142 12.3739 22.4472 13.238 22.0458 14.2459L11.2125 41.3292C11.1864 41.6717 11.1864 42.0158 11.2125 42.3584C11.0325 42.6599 10.9044 42.9894 10.8333 43.3334C10.8936 47.0776 11.9233 50.7423 13.822 53.97C15.7206 57.1976 18.4234 59.8782 21.6667 61.75V113.75C21.6667 115.187 22.2374 116.564 23.2532 117.58C24.269 118.596 25.6468 119.167 27.0833 119.167H102.917C104.353 119.167 105.731 118.596 106.747 117.58C107.763 116.564 108.333 115.187 108.333 113.75V61.9667C111.608 60.0762 114.331 57.3616 116.231 54.0927C118.132 50.8238 119.144 47.1145 119.167 43.3334C119.217 43.0103 119.217 42.6814 119.167 42.3584ZM70.4167 108.333H59.5833V86.6667H70.4167V108.333ZM97.5 108.333H81.25V81.25C81.25 79.8134 80.6793 78.4357 79.6635 77.4199C78.6477 76.404 77.2699 75.8334 75.8333 75.8334H54.1667C52.7301 75.8334 51.3523 76.404 50.3365 77.4199C49.3207 78.4357 48.75 79.8134 48.75 81.25V108.333H32.5V65C35.5846 64.9826 38.63 64.3068 41.4324 63.0177C44.2348 61.7286 46.7296 59.8559 48.75 57.525C50.7832 59.8305 53.2838 61.6769 56.0855 62.9417C58.8873 64.2064 61.926 64.8605 65 64.8605C68.074 64.8605 71.1128 64.2064 73.9145 62.9417C76.7162 61.6769 79.2168 59.8305 81.25 57.525C83.2704 59.8559 85.7653 61.7286 88.5676 63.0177C91.37 64.3068 94.4154 64.9826 97.5 65V108.333ZM97.5 54.1667C94.6268 54.1667 91.8713 53.0253 89.8397 50.9937C87.808 48.962 86.6667 46.2065 86.6667 43.3334C86.6667 41.8968 86.096 40.519 85.0802 39.5032C84.0643 38.4874 82.6866 37.9167 81.25 37.9167C79.8134 37.9167 78.4357 38.4874 77.4198 39.5032C76.404 40.519 75.8333 41.8968 75.8333 43.3334C75.8333 46.2065 74.692 48.962 72.6603 50.9937C70.6287 53.0253 67.8732 54.1667 65 54.1667C62.1268 54.1667 59.3713 53.0253 57.3397 50.9937C55.308 48.962 54.1667 46.2065 54.1667 43.3334C54.1667 41.8968 53.596 40.519 52.5802 39.5032C51.5643 38.4874 50.1866 37.9167 48.75 37.9167C47.3134 37.9167 45.9357 38.4874 44.9198 39.5032C43.904 40.519 43.3333 41.8968 43.3333 43.3334C43.3867 44.756 43.1593 46.1752 42.6642 47.51C42.169 48.8448 41.4158 50.069 40.4476 51.1127C39.4794 52.1564 38.315 52.9991 37.0211 53.5928C35.7271 54.1866 34.3289 54.5196 32.9063 54.5729C30.0331 54.6807 27.2348 53.6427 25.1269 51.6872C24.0833 50.7189 23.2405 49.5546 22.6468 48.2607C22.0531 46.9667 21.72 45.5685 21.6667 44.1459L30.7667 21.6667H99.2333L108.333 44.1459C108.128 46.8759 106.897 49.4271 104.887 51.2861C102.877 53.1452 100.238 54.1744 97.5 54.1667Z" fill="#435334"/>
<path d="M130 129H0V131H130V129Z" fill="#53694B" mask="url(#path-1-inside-1_590_835)"/>
</svg>
