<svg width="13" height="10" viewBox="0 0 13 10" fill="none" xmlns="http://www.w3.org/2000/svg">
<path d="M6.13005 9.27165L6.12989 9.27141L0.606664 1.11876L0.605781 1.11744L0.546705 1.02903C0.519643 0.975514 0.5 0.903738 0.5 0.823346C0.5 0.704974 0.539611 0.612622 0.584226 0.558017C0.627846 0.504629 0.662135 0.5 0.674375 0.5H12.3256C12.3379 0.5 12.3722 0.504629 12.4158 0.558017C12.4604 0.612622 12.5 0.704974 12.5 0.823346C12.5 0.899708 12.4834 0.967701 12.4588 1.02175L12.3853 1.12833L12.3853 1.12833L12.3831 1.13153L6.86335 9.2694C6.74793 9.43599 6.60866 9.5 6.49594 9.5C6.37899 9.5 6.24203 9.43715 6.13005 9.27165Z" fill="white" stroke="#E2F0DC"/>
</svg>
